%FSTAX23Y23*%
%MOIN*%
%SFA1B1*%

%IPPOS*%
%AMD14*
4,1,8,0.023000,0.018300,-0.023000,0.018300,-0.025800,0.015600,-0.025800,-0.015600,-0.023000,-0.018300,0.023000,-0.018300,0.025800,-0.015600,0.025800,0.015600,0.023000,0.018300,0.0*
1,1,0.005492,0.023000,0.015600*
1,1,0.005492,-0.023000,0.015600*
1,1,0.005492,-0.023000,-0.015600*
1,1,0.005492,0.023000,-0.015600*
%
%AMD15*
4,1,8,0.021900,0.063800,-0.021900,0.063800,-0.025800,0.059900,-0.025800,-0.059900,-0.021900,-0.063800,0.021900,-0.063800,0.025800,-0.059900,0.025800,0.059900,0.021900,0.063800,0.0*
1,1,0.007736,0.021900,0.059900*
1,1,0.007736,-0.021900,0.059900*
1,1,0.007736,-0.021900,-0.059900*
1,1,0.007736,0.021900,-0.059900*
%
%ADD10C,0.060000*%
%ADD11C,0.039370*%
%ADD12R,0.055118X0.066929*%
%ADD13R,0.039370X0.070866*%
G04~CAMADD=14~8~0.0~0.0~515.7~366.1~27.5~0.0~15~0.0~0.0~0.0~0.0~0~0.0~0.0~0.0~0.0~0~0.0~0.0~0.0~0.0~515.7~366.1*
%ADD14D14*%
G04~CAMADD=15~8~0.0~0.0~515.7~1275.6~38.7~0.0~15~0.0~0.0~0.0~0.0~0~0.0~0.0~0.0~0.0~0~0.0~0.0~0.0~0.0~515.7~1275.6*
%ADD15D15*%
%ADD16R,0.078740X0.047244*%
%ADD17R,0.072441X0.070866*%
%ADD18R,0.070866X0.072441*%
%ADD19R,0.066929X0.055118*%
%ADD20C,0.039370*%
%ADD21C,0.029527*%
%ADD22C,0.021654*%
%ADD23C,0.025591*%
%ADD24C,0.045275*%
%ADD25C,0.027559*%
%ADD26R,0.045275X0.045275*%
%ADD27C,0.045275*%
%ADD28C,0.074409*%
%ADD29R,0.074409X0.074409*%
%ADD30C,0.046063*%
%ADD31R,0.046063X0.046063*%
%ADD32R,0.051181X0.051181*%
%ADD33C,0.051181*%
%ADD34R,0.064960X0.064960*%
%ADD35C,0.064960*%
%ADD36O,0.086614X0.173228*%
%ADD37O,0.173228X0.086614*%
%ADD38C,0.070866*%
%LNpcb1_copper_signal_top-1*%
%LPD*%
G36*
X012Y01823D02*
X01082D01*
X01073Y01822*
X01064Y01818*
X01056Y01812*
X00917Y01673*
X00708*
X0057Y01811*
Y01874*
X012*
Y01823*
G37*
G36*
X00097Y01297D02*
Y01268D01*
X00067Y01238*
X00038Y01283*
X00067Y01327*
X00097Y01297*
G37*
G36*
X00216Y01539D02*
Y01519D01*
Y015*
X00242Y01474*
X00364*
X0037Y0148*
X00379*
Y0147*
X00442*
X00472Y0144*
Y01362*
X00433Y01322*
X00354*
X00334Y01303*
Y01123*
X00351Y01106*
X00433*
X00444Y01118*
Y01153*
X00452Y01161*
X00511*
X00519Y01153*
X00519Y01114*
X00537Y01096*
X00555*
Y01051*
X00547Y01043*
X00286*
X00239Y0109*
X00212*
X00153Y01149*
X00118*
X00094Y01173*
Y0122*
X00116Y01242*
X00155*
X00177Y01263*
Y01303*
X00137Y01342*
X00118Y01362*
Y01559*
X00137Y01578*
X00177*
X00216Y01539*
G37*
G36*
X01233Y01081D02*
Y01072D01*
Y01069*
X01244Y01059*
X01338*
X01362Y01035*
Y00889*
X01307Y00834*
X0124*
Y00885*
X01181Y00935*
X01129Y00972*
Y0109*
X01137Y01098*
X01216*
X01233Y01081*
G37*
G36*
X00157Y0059D02*
Y00551D01*
X00196Y00511*
X00433*
X00472Y00472*
Y00216*
X00553Y00135*
X00586Y00098*
Y0*
X00433*
X00137*
X0Y00137*
Y00594*
X00035Y00629*
X00118Y00629*
X00157Y0059*
G37*
G54D10*
X01475Y00381D03*
Y00248D03*
X00169Y00735D03*
X00314Y00736D03*
X00895Y00462D03*
X01043D03*
G54D11*
X01716Y01358D03*
X0183D03*
X01669Y01177D03*
Y01291D03*
G54D12*
X00367Y01665D03*
X00277D03*
X00179Y00858D03*
X00269D03*
G54D13*
X00278Y01539D03*
X00156D03*
X00167Y00972D03*
X00289D03*
G54D14*
X0012Y01283D03*
Y01192D03*
Y01102D03*
G54D15*
X00383Y01192D03*
G54D16*
X00589Y01624D03*
Y01545D03*
Y01466D03*
Y01388D03*
Y01309D03*
Y0123D03*
Y01151D03*
Y01073D03*
X01179D03*
Y01151D03*
Y0123D03*
Y01309D03*
Y01388D03*
Y01466D03*
Y01545D03*
Y01624D03*
G54D17*
X01291Y01129D03*
Y01011D03*
X01338Y01496D03*
Y01377D03*
X01437Y01496D03*
Y01377D03*
X00484Y01114D03*
Y01232D03*
X00437Y01409D03*
Y01527D03*
G54D18*
X0133Y01232D03*
X01448D03*
G54D19*
X00401Y00976D03*
Y01066D03*
G54D20*
X0128Y00511D02*
Y00545D01*
Y00511D02*
X0141Y00382D01*
X01474D02*
X01475Y00381D01*
X01279Y00547D02*
X0128Y00545D01*
X0141Y00382D02*
X01474D01*
X01475Y00235D02*
Y00248D01*
X01326Y00086D02*
X01475Y00235D01*
X01229Y00086D02*
X01326D01*
X01121Y00081D02*
X01225D01*
X01229Y00086*
X01179Y00547D02*
Y00633D01*
X0155Y01003*
Y01126*
X01551Y01127*
X01091Y00025D02*
X01096Y0002D01*
X0125D02*
X01255Y00025D01*
X01116Y00086D02*
X01121Y00081D01*
X01096Y0002D02*
X0125D01*
X00576Y00025D02*
X01091D01*
X01255D02*
X01462D01*
X00716Y00206D02*
X00836Y00086D01*
X01116*
X01462Y00025D02*
X01751Y00314D01*
Y00571*
X01787Y00607*
Y00615*
X00216Y01667D02*
X00277D01*
X00318Y00729D02*
X0032Y0073D01*
X00401Y00811*
X01098Y00466D02*
X01179Y00547D01*
X01043Y00462D02*
X01047Y00466D01*
X01098*
X00891D02*
X00895Y00462D01*
X00779Y00547D02*
X0086Y00466D01*
X00891*
X00318Y00728D02*
Y00729D01*
X00401Y00811D02*
Y00976D01*
X00612Y01795D02*
X00716Y0169D01*
X00907*
X01063Y01846*
X00378Y01795D02*
X00612D01*
X00277Y01665D02*
X00285Y01673D01*
Y01702*
X00378Y01795*
X0009Y00426D02*
X00169Y00347D01*
X0027*
X00279Y00338*
X00179Y00858D02*
Y00864D01*
X00167Y00876D02*
X00179Y00864D01*
X00167Y00876D02*
Y00972D01*
X01438Y01846D02*
X01588Y01696D01*
X01063Y01846D02*
X01438D01*
X00214Y01665D02*
X00216Y01667D01*
X00277Y01665D02*
Y01667D01*
X00278Y01539D02*
Y01555D01*
X00277Y01555D02*
X00278Y01555D01*
X00277Y01555D02*
Y01665D01*
G54D21*
X01419Y00314D02*
X01555D01*
X01311Y00206D02*
X01419Y00314D01*
X01104Y00178D02*
X01144Y00137D01*
X01201D02*
X01206Y00142D01*
X01144Y00137D02*
X01201D01*
X01206Y00142D02*
X01247D01*
X01311Y00206*
X01669Y01032D02*
X01785Y00915D01*
X01669Y01032D02*
Y01177D01*
X00053Y01068D02*
X00167Y00988D01*
Y00972D02*
Y00988D01*
X00647Y00178D02*
Y00235D01*
X00556Y00086D02*
X00647Y00178D01*
X01785Y00915D02*
X01787D01*
X01668Y0129D02*
X01669Y01291D01*
X01513Y0129D02*
X01668D01*
X01513Y0129D02*
X01513Y0129D01*
X01632Y01358D02*
X01716D01*
X01534Y01341D02*
X01616D01*
X0152Y01356D02*
X01534Y01341D01*
X01616D02*
X01632Y01358D01*
X01499Y01304D02*
X01513Y0129D01*
X01339Y01377D02*
X0136Y01357D01*
Y01331D02*
Y01357D01*
X01386Y01304D02*
X01499D01*
X0136Y01331D02*
X01386Y01304D01*
X01448Y01232D02*
X01536D01*
X01338Y01377D02*
X01339D01*
X00053Y01068D02*
Y01283D01*
Y01596*
X00122Y01665*
X00214*
X00578Y00206D02*
X00585Y00213D01*
Y00238*
X00587Y0024*
Y00247*
X00666Y00326*
X00839*
X00679D02*
Y00547D01*
X00413Y00566D02*
X00655D01*
X00647Y00235D02*
X00687Y00275D01*
X00785D02*
X00854Y00206D01*
X00687Y00275D02*
X00785D01*
X00279Y00578D02*
X00413D01*
X0062Y00897D02*
X00641Y00919D01*
X00764D02*
X01076Y0123D01*
X00715Y00726D02*
X009D01*
X0062Y00821D02*
X00641Y008D01*
Y00919D02*
X00764D01*
X00641Y008D02*
X00715Y00726D01*
X0062Y00821D02*
Y00897D01*
X00151Y01523D02*
Y01539D01*
X00364Y01661D02*
X0038Y01678D01*
X0128Y01735D02*
X01327Y01688D01*
X01332*
X01458Y01623D02*
X01551Y0153D01*
Y01422D02*
Y0153D01*
X0149Y01356D02*
X0152D01*
X01104Y00178D02*
Y00235D01*
X01166Y00213D02*
X01173Y00206D01*
X01166Y00213D02*
Y00245D01*
X00976Y00435D02*
X01166Y00245D01*
X00976Y00544D02*
X00979Y00547D01*
X00976Y00435D02*
Y00544D01*
X00675Y00547D02*
X00679D01*
X00655Y00566D02*
X00675Y00547D01*
X01076Y0123D02*
X01179D01*
X009Y00726D02*
X01079Y00547D01*
X00485Y01114D02*
X00526Y01073D01*
X00484Y01114D02*
X00485D01*
X00526Y01073D02*
X00589D01*
X00839Y00326D02*
X0089Y00275D01*
X01063*
X01104Y00235*
X01457Y01357D02*
X01489D01*
X01437Y01377D02*
X01457Y01357D01*
X01489D02*
X0149Y01356D01*
X01295Y01623D02*
X01458D01*
X00588Y01738D02*
X00693Y01634D01*
X00431Y01738D02*
X00588D01*
X00693Y01634D02*
X0093D01*
X0133Y01232D02*
Y01233D01*
X01254Y01309D02*
X0133Y01233D01*
X01179Y01309D02*
X01254D01*
X0133Y01503D02*
X01338Y01496D01*
X01269Y01503D02*
X0133D01*
X01237Y01536D02*
X01269Y01503D01*
X01188Y01536D02*
X01237D01*
X01179Y01545D02*
X01188Y01536D01*
X01415Y01516D02*
X01436Y01496D01*
X01188Y01615D02*
X0123D01*
X01274Y01572*
X01436Y01496D02*
X01437D01*
X01234Y01684D02*
X01295Y01623D01*
X01179Y01624D02*
X01188Y01615D01*
X01274Y01572D02*
X01385D01*
X01415Y01542*
Y01516D02*
Y01542D01*
X00053Y01283D02*
X0012D01*
X0038Y01678D02*
Y01687D01*
X00431Y01738*
X00364Y0147D02*
Y01661D01*
Y0147D02*
X00404Y0143D01*
X00416*
X00289Y00972D02*
Y00988D01*
X00462Y01092D02*
X00463Y01093D01*
X00236Y01041D02*
X00289Y00988D01*
X00206Y01041D02*
X00236D01*
X00186Y01044D02*
X00204D01*
X00206Y01041*
X00127Y01102D02*
X00186Y01044D01*
X0047Y01659D02*
Y01665D01*
X00437Y01527D02*
Y01625D01*
X0047Y01659*
X00269Y00784D02*
Y00858D01*
X00248Y00763D02*
X00269Y00784D01*
X00248Y00699D02*
Y00763D01*
Y00699D02*
X00279Y00668D01*
Y00578D02*
Y00668D01*
X0012Y01192D02*
X00127D01*
X00156Y01397D02*
Y0146D01*
X0012Y01102D02*
X00127D01*
X00169Y00735D02*
Y00823D01*
X00179Y00858*
X00484Y01232D02*
X00485D01*
X00513Y0126*
Y01426*
X00553Y01466*
X00589*
X0047Y01665D02*
X00511Y01624D01*
X00589*
X0093Y01634D02*
X01082Y01786D01*
X01334*
X00416Y0143D02*
X00437Y01409D01*
X00156Y01397D02*
X00182Y01372D01*
X00207Y01409D02*
X00437D01*
X00156Y0146D02*
X00207Y01409D01*
X00156Y0146D02*
Y01539D01*
X00269Y00858D02*
Y00864D01*
X00289Y00884*
Y00972*
X01104Y01735D02*
X0128D01*
X01052Y01684D02*
X01104Y01735D01*
X01052Y01377D02*
Y01684D01*
Y01377D02*
X01121Y01309D01*
X01179*
Y01151D02*
X01268D01*
X0129Y01129*
X01291*
X0117Y01554D02*
X01179Y01545D01*
X01135Y01554D02*
X0117D01*
X01103Y01585D02*
X01135Y01554D01*
X01103Y01585D02*
Y01663D01*
X01125Y01684*
X01234*
G54D22*
X01622Y00781D02*
Y01133D01*
Y00781D02*
X01787Y00615D01*
X01313Y0086D02*
X01405Y00952D01*
X0128Y0086D02*
X01313D01*
X01405Y00952D02*
Y01058D01*
X01279Y00859D02*
X0128Y0086D01*
X01527Y0118D02*
X01575D01*
X01622Y01133*
X01405Y01058D02*
X01527Y0118D01*
G54D23*
X01857Y01085D02*
Y01144D01*
X01787Y01015D02*
X01857Y01085D01*
X0183Y01171D02*
Y01358D01*
Y01171D02*
X01857Y01144D01*
X0174Y01237D02*
X0177Y01266D01*
X01536Y01237D02*
X01633D01*
X0174*
X0177Y01266D02*
Y0138D01*
X01364Y01786D02*
X0177Y0138D01*
X01334Y01786D02*
X01364D01*
G54D24*
X00077Y00542D02*
X00082Y00537D01*
X00077Y00644D02*
X00169Y00735D01*
X00082Y00464D02*
Y00537D01*
Y00464D02*
X0009Y00456D01*
X00077Y00542D02*
Y00644D01*
X00854Y00206D02*
X01035D01*
G54D25*
X00569Y00918D02*
X0062Y00969D01*
X00569Y008D02*
X00694Y00675D01*
X0075D02*
X00879Y00547D01*
X00694Y00675D02*
X0075D01*
X00569Y008D02*
Y00918D01*
X0062Y00969D02*
X00727D01*
X00744Y00985*
Y01188*
X00633Y01299D02*
X00744Y01188D01*
X00589Y01309D02*
X00598Y01299D01*
X00633*
G54D26*
X01555Y00314D03*
G54D27*
X01751Y00314D03*
G54D28*
X01332Y01696D03*
X0047Y01665D03*
G54D29*
X01588Y01696D03*
X00214Y01665D03*
G54D30*
X00679Y00547D03*
X00779D03*
X00879D03*
X00979D03*
X01079D03*
X01179D03*
X01279D03*
Y00859D03*
X01179D03*
X01079D03*
X00979D03*
X00879D03*
X00779D03*
G54D31*
X00679Y00859D03*
G54D32*
X01551Y01422D03*
G54D33*
X01551Y01122D03*
G54D34*
X01311Y00206D03*
X00854D03*
G54D35*
X01173Y00206D03*
X01035D03*
X00578D03*
X00716D03*
G54D36*
X0009Y00456D03*
G54D37*
X00279Y00338D03*
Y00578D03*
G54D38*
X01787Y01115D03*
Y01015D03*
Y00915D03*
Y00815D03*
Y00715D03*
Y00615D03*
M02*