%FSTAX23Y23*%
%MOIN*%
%SFA1B1*%

%IPPOS*%
%AMD14*
4,1,8,0.023000,0.018300,-0.023000,0.018300,-0.025800,0.015600,-0.025800,-0.015600,-0.023000,-0.018300,0.023000,-0.018300,0.025800,-0.015600,0.025800,0.015600,0.023000,0.018300,0.0*
1,1,0.005492,0.023000,0.015600*
1,1,0.005492,-0.023000,0.015600*
1,1,0.005492,-0.023000,-0.015600*
1,1,0.005492,0.023000,-0.015600*
%
%AMD15*
4,1,8,0.021900,0.063800,-0.021900,0.063800,-0.025800,0.059900,-0.025800,-0.059900,-0.021900,-0.063800,0.021900,-0.063800,0.025800,-0.059900,0.025800,0.059900,0.021900,0.063800,0.0*
1,1,0.007736,0.021900,0.059900*
1,1,0.007736,-0.021900,0.059900*
1,1,0.007736,-0.021900,-0.059900*
1,1,0.007736,0.021900,-0.059900*
%
%ADD10C,0.060000*%
%ADD11C,0.039370*%
%ADD12R,0.055118X0.066929*%
%ADD13R,0.039370X0.070866*%
G04~CAMADD=14~8~0.0~0.0~515.7~366.1~27.5~0.0~15~0.0~0.0~0.0~0.0~0~0.0~0.0~0.0~0.0~0~0.0~0.0~0.0~0.0~515.7~366.1*
%ADD14D14*%
G04~CAMADD=15~8~0.0~0.0~515.7~1275.6~38.7~0.0~15~0.0~0.0~0.0~0.0~0~0.0~0.0~0.0~0.0~0~0.0~0.0~0.0~0.0~515.7~1275.6*
%ADD15D15*%
%ADD16R,0.078740X0.047244*%
%ADD17R,0.072441X0.070866*%
%ADD18R,0.070866X0.072441*%
%ADD19R,0.066929X0.055118*%
%ADD26R,0.045275X0.045275*%
%ADD27C,0.045275*%
%ADD28C,0.074409*%
%ADD29R,0.074409X0.074409*%
%ADD30C,0.046063*%
%ADD31R,0.046063X0.046063*%
%ADD32R,0.051181X0.051181*%
%ADD33C,0.051181*%
%ADD34R,0.064960X0.064960*%
%ADD35C,0.064960*%
%ADD36O,0.086614X0.173228*%
%ADD37O,0.173228X0.086614*%
%ADD38C,0.070866*%
%LNpcb1_pads_top-1*%
%LPD*%
G54D10*
X01475Y00381D03*
Y00248D03*
X00169Y00735D03*
X00314Y00736D03*
X00895Y00462D03*
X01043D03*
G54D11*
X01716Y01358D03*
X0183D03*
X01669Y01177D03*
Y01291D03*
G54D12*
X00367Y01665D03*
X00277D03*
X00179Y00858D03*
X00269D03*
G54D13*
X00278Y01539D03*
X00156D03*
X00167Y00972D03*
X00289D03*
G54D14*
X0012Y01283D03*
Y01192D03*
Y01102D03*
G54D15*
X00383Y01192D03*
G54D16*
X00589Y01624D03*
Y01545D03*
Y01466D03*
Y01388D03*
Y01309D03*
Y0123D03*
Y01151D03*
Y01073D03*
X01179D03*
Y01151D03*
Y0123D03*
Y01309D03*
Y01388D03*
Y01466D03*
Y01545D03*
Y01624D03*
G54D17*
X01291Y01129D03*
Y01011D03*
X01338Y01496D03*
Y01377D03*
X01437Y01496D03*
Y01377D03*
X00484Y01114D03*
Y01232D03*
X00437Y01409D03*
Y01527D03*
G54D18*
X0133Y01232D03*
X01448D03*
G54D19*
X00401Y00976D03*
Y01066D03*
G54D26*
X01555Y00314D03*
G54D27*
X01751Y00314D03*
G54D28*
X01332Y01696D03*
X0047Y01665D03*
G54D29*
X01588Y01696D03*
X00214Y01665D03*
G54D30*
X00679Y00547D03*
X00779D03*
X00879D03*
X00979D03*
X01079D03*
X01179D03*
X01279D03*
Y00859D03*
X01179D03*
X01079D03*
X00979D03*
X00879D03*
X00779D03*
G54D31*
X00679Y00859D03*
G54D32*
X01551Y01422D03*
G54D33*
X01551Y01122D03*
G54D34*
X01311Y00206D03*
X00854D03*
G54D35*
X01173Y00206D03*
X01035D03*
X00578D03*
X00716D03*
G54D36*
X0009Y00456D03*
G54D37*
X00279Y00338D03*
Y00578D03*
G54D38*
X01787Y01115D03*
Y01015D03*
Y00915D03*
Y00815D03*
Y00715D03*
Y00615D03*
M02*